<svg xmlns="http://www.w3.org/2000/svg" viewBox="280 460 850 560"><path d="M471.00,759.37 C443.32,755.41 427.14,748.44 413.49,734.60 C394.85,715.70 389.08,686.07 398.94,659.87 C400.10,656.77 403.31,651.03 406.06,647.10 C416.99,631.55 435.30,621.80 463.74,616.41 C470.36,615.16 480.60,614.63 505.62,614.27 L538.74,613.79 L537.84,609.80 C536.48,603.74 533.58,598.75 528.99,594.61 C520.51,586.95 510.24,584.47 490.21,585.27 C470.76,586.04 455.66,590.73 440.09,600.84 C433.09,605.39 431.51,605.75 428.31,603.50 C426.20,602.02 403.41,558.86 402.87,555.32 C402.24,551.19 404.04,548.44 409.73,544.85 C451.88,518.18 520.96,512.20 564.48,531.45 C588.42,542.04 605.44,562.81 612.45,590.00 L614.90,599.50 L614.95,565.40 C614.98,543.43 615.39,530.18 616.09,528.16 C617.82,523.20 620.70,522.84 655.34,523.19 L686.18,523.50 L688.09,525.86 C689.53,527.64 690.00,529.81 690.00,534.65 L690.00,541.07 L695.75,537.18 C703.78,531.73 710.18,528.65 719.64,525.67 C729.30,522.62 748.20,519.68 755.01,520.16 L759.86,520.50 L760.18,499.85 C760.47,481.21 760.69,479.00 762.40,477.10 C764.27,475.04 765.02,475.00 799.00,475.00 C832.99,475.00 833.73,475.04 835.60,477.10 C837.34,479.03 837.53,481.26 837.80,503.60 L838.10,528.00 L861.40,528.00 C875.41,528.00 885.93,528.43 887.78,529.07 C891.99,530.54 893.00,534.06 893.00,547.26 L893.00,558.22 L899.09,552.58 C935.64,518.74 995.81,510.30 1042.62,532.44 C1054.92,538.25 1062.91,543.80 1072.74,553.34 C1095.43,575.36 1107.07,604.98 1106.96,640.38 C1106.91,655.49 1105.94,661.84 1103.41,663.69 C1101.97,664.74 1086.09,665.00 1022.31,665.00 C976.90,665.00 943.00,665.38 943.00,665.89 C943.00,668.28 951.85,679.57 956.37,682.95 C967.07,690.93 975.92,693.89 991.50,694.68 C1011.96,695.71 1028.43,690.78 1042.00,679.54 C1048.56,674.10 1050.29,673.44 1053.82,675.01 C1056.76,676.31 1088.60,710.39 1090.80,714.58 C1092.78,718.38 1091.00,721.83 1083.39,728.95 C1067.83,743.51 1049.78,752.18 1024.52,757.23 C1010.11,760.11 980.57,760.33 966.26,757.67 C943.16,753.36 928.26,747.38 908.81,734.61 L906.12,732.85 L907.21,735.75 C909.06,740.64 907.58,743.50 901.19,747.38 C884.96,757.25 856.74,762.04 833.00,758.97 C789.85,753.39 765.95,729.28 761.04,686.41 C760.48,681.51 760.01,658.31 760.01,634.85 L760.00,592.20 L744.75,592.45 C727.46,592.74 721.64,594.21 712.22,600.66 C704.10,606.23 699.31,613.16 695.41,625.00 C693.76,629.99 693.54,636.16 693.04,691.72 C692.54,748.71 692.38,753.05 690.72,754.72 C689.09,756.34 686.08,756.53 657.22,756.80 C623.94,757.12 620.02,756.88 617.53,754.39 C616.16,753.01 615.84,753.01 614.47,754.39 C611.99,756.87 608.03,757.12 576.78,756.80 C542.65,756.45 543.98,756.82 543.22,747.59 L542.76,742.07 L538.63,744.90 C528.12,752.10 514.15,756.97 498.50,758.89 C490.02,759.93 476.55,760.17 471.00,759.37 z M517.28,700.05 C524.86,697.14 530.63,692.64 535.25,686.03 C538.81,680.93 539.00,680.26 539.00,672.83 L539.00,665.00 L518.25,665.02 C494.80,665.04 485.49,666.05 479.05,669.27 C473.44,672.08 470.92,675.54 470.27,681.33 C469.58,687.44 470.42,690.27 474.25,694.63 C479.88,701.04 486.58,703.04 501.00,702.59 C508.86,702.35 512.96,701.71 517.28,700.05 z M869.20,693.82 C872.06,692.97 873.00,692.21 872.64,691.07 C872.36,690.21 870.78,685.67 869.13,681.00 C864.00,666.51 862.51,657.24 862.54,640.00 C862.56,623.24 864.71,610.12 869.55,597.27 L871.91,591.00 L854.96,591.00 L838.00,591.00 L838.01,634.75 C838.01,661.76 838.41,679.92 839.04,682.22 C840.34,686.87 844.46,691.85 848.45,693.59 C852.27,695.26 863.99,695.38 869.20,693.82 z M1029.89,609.25 C1023.30,593.86 1008.68,583.83 990.74,582.39 C968.58,580.62 950.57,591.03 942.54,610.25 L940.97,614.00 L986.45,614.00 L1031.93,614.00 L1029.89,609.25 z" fill="#FFFFFF"/><path d="M553.50,1001.08 C525.54,996.55 503.58,983.39 490.77,963.48 C480.87,948.10 477.56,936.22 477.66,916.50 C477.72,904.76 478.13,901.09 480.21,893.75 L482.69,885.00 L477.87,885.00 L473.05,885.00 L472.77,940.46 C472.52,992.17 472.38,996.05 470.71,997.71 C469.10,999.33 466.60,999.50 444.07,999.50 C421.03,999.50 419.06,999.36 417.10,997.60 C415.01,995.70 415.00,995.34 415.00,940.35 L415.00,885.00 L407.15,885.00 C397.05,885.00 393.46,883.76 392.07,879.78 C390.68,875.78 390.68,846.22 392.07,842.22 C393.45,838.26 397.05,837.00 407.00,837.00 L414.71,837.00 L415.33,829.63 C416.66,813.89 423.87,798.64 434.29,789.53 C448.41,777.18 472.59,771.51 494.68,775.37 C511.22,778.26 521.00,783.29 521.00,788.91 C521.00,790.42 518.30,799.04 515.00,808.07 C507.41,828.85 505.76,830.45 496.78,825.77 C494.00,824.32 490.18,823.41 485.88,823.16 C479.76,822.82 479.03,823.00 476.07,825.64 C473.77,827.71 472.72,829.66 472.32,832.68 L471.75,836.87 L489.34,837.18 C509.18,837.54 509.75,837.74 510.71,844.84 L511.26,848.96 L515.38,846.41 C541.75,830.09 580.46,827.65 609.43,840.50 C622.82,846.44 636.61,857.63 643.63,868.24 L646.75,872.97 L651.81,866.16 C672.15,838.81 711.68,826.25 750.15,834.92 C770.36,839.47 787.17,849.78 798.93,864.83 L804.33,871.73 L808.11,866.07 C815.95,854.33 829.77,843.55 844.02,838.05 C867.42,829.03 891.87,830.33 914.25,841.78 C914.66,841.99 915.00,828.25 915.00,811.24 C915.00,781.07 915.05,780.26 917.10,778.40 C919.06,776.64 921.03,776.50 944.07,776.50 C966.60,776.50 969.10,776.67 970.71,778.28 C972.35,779.92 972.52,783.11 972.79,817.02 L973.07,853.97 L978.46,849.57 C1000.87,831.32 1042.88,826.89 1081.98,838.65 C1094.33,842.37 1101.80,846.37 1102.69,849.76 C1103.08,851.26 1103.28,853.32 1103.13,854.31 C1102.64,857.52 1087.99,887.46 1086.27,888.75 C1083.68,890.71 1080.97,890.27 1072.13,886.44 C1061.10,881.66 1051.82,879.85 1037.86,879.76 C1027.48,879.69 1025.69,879.94 1021.36,882.09 C1011.28,887.09 1016.33,890.04 1042.76,894.60 C1071.29,899.51 1081.87,903.02 1092.81,911.19 C1108.88,923.19 1113.59,949.08 1103.38,969.23 C1100.06,975.79 1090.25,985.62 1082.81,989.85 C1068.39,998.04 1052.42,1001.51 1029.50,1001.45 C1011.09,1001.40 1001.11,1000.03 985.50,995.43 C980.55,993.97 975.77,992.56 974.88,992.30 C973.76,991.98 972.92,992.79 972.18,994.92 C971.52,996.82 970.04,998.42 968.35,999.06 C966.64,999.71 957.19,999.99 943.40,999.80 C923.22,999.53 921.01,999.33 919.10,997.60 C917.95,996.55 917.00,994.66 917.00,993.39 C917.00,991.10 916.98,991.11 909.75,994.52 C898.02,1000.06 891.30,1001.44 876.00,1001.42 C860.84,1001.40 850.58,999.33 839.11,993.96 C826.73,988.17 813.88,977.19 807.24,966.71 L804.38,962.20 L798.74,969.49 C780.05,993.64 743.33,1006.37 709.38,1000.45 C704.50,999.60 698.09,998.21 695.14,997.35 C678.06,992.39 661.87,981.37 651.81,967.84 L646.75,961.03 L643.63,965.76 C639.12,972.58 629.92,981.44 622.12,986.49 C607.04,996.25 591.46,1000.86 571.50,1001.48 C564.35,1001.71 556.25,1001.53 553.50,1001.08 z M1047.96,952.34 C1051.28,950.98 1052.95,949.44 1052.98,947.69 C1053.02,945.76 1043.31,942.98 1028.00,940.55 C999.66,936.05 988.64,932.66 977.56,925.04 L973.00,921.90 L973.00,931.95 C973.00,937.48 973.25,942.00 973.57,942.00 C973.88,942.00 975.05,941.51 976.18,940.90 C977.87,940.00 979.91,940.60 987.87,944.34 C999.14,949.64 1009.76,952.75 1020.68,953.93 C1030.35,954.98 1043.35,954.22 1047.96,952.34 z M581.34,949.17 C587.96,946.24 593.36,940.80 596.61,933.76 C599.22,928.11 599.50,926.47 599.50,917.00 C599.50,907.53 599.22,905.89 596.61,900.24 C591.10,888.30 581.87,882.59 568.00,882.54 C560.69,882.50 558.71,882.89 553.84,885.28 C547.28,888.50 541.65,894.30 538.70,900.88 C535.83,907.26 535.17,921.64 537.40,929.29 C540.32,939.33 548.81,947.85 558.67,950.63 C564.91,952.39 575.63,951.70 581.34,949.17 z M739.34,949.17 C745.96,946.24 751.36,940.80 754.61,933.76 C757.22,928.11 757.50,926.47 757.50,917.00 C757.50,907.53 757.22,905.89 754.61,900.24 C749.10,888.30 739.87,882.59 726.00,882.54 C718.69,882.50 716.71,882.89 711.84,885.28 C705.28,888.50 699.65,894.30 696.70,900.88 C693.83,907.26 693.17,921.64 695.40,929.29 C698.32,939.33 706.81,947.85 716.67,950.63 C722.91,952.39 733.63,951.70 739.34,949.17 z M899.03,947.90 C910.00,942.06 915.20,932.33 915.29,917.50 C915.39,901.87 910.33,892.15 898.90,885.99 C893.02,882.82 891.81,882.54 884.00,882.56 C877.32,882.59 874.38,883.09 870.27,884.91 C864.13,887.63 857.68,894.23 854.72,900.82 C851.83,907.26 851.16,921.61 853.40,929.29 C858.98,948.49 881.04,957.49 899.03,947.90 z M1107.08,640.42 C1107.13,639.25 1107.36,639.01 1107.68,639.81 C1107.97,640.53 1107.94,641.40 1107.60,641.73 C1107.27,642.06 1107.04,641.47 1107.08,640.42 z M1073.92,554.25 L1071.50,551.50 L1074.25,553.92 C1076.82,556.19 1077.46,557.00 1076.67,557.00 C1076.50,557.00 1075.26,555.76 1073.92,554.25 z M783.81,474.25 C792.79,474.09 807.19,474.09 815.81,474.25 C824.44,474.42 817.10,474.55 799.50,474.55 C781.90,474.55 774.84,474.42 783.81,474.25 z" fill="#FFB21E"/></svg>
